<svg id="visual" viewBox="0 0 960 540" width="960" height="540" xmlns="http://www.w3.org/2000/svg" xmlns:xlink="http://www.w3.org/1999/xlink" version="1.1"><g stroke-width="1" stroke-linejoin="bevel"><path d="M423 272L385 235L307 316Z" fill="#112e42" stroke="#112e42"></path><path d="M533 237L374 171L385 235Z" fill="#15384f" stroke="#15384f"></path><path d="M385 235L374 171L307 316Z" fill="#246688" stroke="#246688"></path><path d="M307 316L489 377L423 272Z" fill="#081a28" stroke="#081a28"></path><path d="M423 272L533 237L385 235Z" fill="#081a28" stroke="#081a28"></path><path d="M489 377L533 237L423 272Z" fill="#112e42" stroke="#112e42"></path><path d="M198 163L173 220L307 316Z" fill="#246688" stroke="#246688"></path><path d="M301 540L425 494L307 316Z" fill="#00101c" stroke="#00101c"></path><path d="M307 316L425 494L489 377Z" fill="#1d4e6b" stroke="#1d4e6b"></path><path d="M405 0L293 95L374 171Z" fill="#1d4e6b" stroke="#1d4e6b"></path><path d="M374 171L198 163L307 316Z" fill="#15384f" stroke="#15384f"></path><path d="M293 95L198 163L374 171Z" fill="#1d4e6b" stroke="#1d4e6b"></path><path d="M425 494L575 394L489 377Z" fill="#297ea6" stroke="#297ea6"></path><path d="M489 377L575 394L533 237Z" fill="#15384f" stroke="#15384f"></path><path d="M182 515L301 540L307 316Z" fill="#00101c" stroke="#00101c"></path><path d="M301 540L432 540L425 494Z" fill="#00101c" stroke="#00101c"></path><path d="M425 494L626 480L575 394Z" fill="#0c2435" stroke="#0c2435"></path><path d="M52 251L92 306L173 220Z" fill="#1d4e6b" stroke="#1d4e6b"></path><path d="M173 220L92 306L307 316Z" fill="#112e42" stroke="#112e42"></path><path d="M114 486L182 515L307 316Z" fill="#112e42" stroke="#112e42"></path><path d="M668 266L621 163L533 237Z" fill="#19435d" stroke="#19435d"></path><path d="M491 20L405 0L374 171Z" fill="#19435d" stroke="#19435d"></path><path d="M491 20L374 171L533 237Z" fill="#0c2435" stroke="#0c2435"></path><path d="M293 95L160 40L198 163Z" fill="#19435d" stroke="#19435d"></path><path d="M405 0L322 0L293 95Z" fill="#1d4e6b" stroke="#1d4e6b"></path><path d="M114 486L192 540L182 515Z" fill="#277297" stroke="#277297"></path><path d="M182 515L192 540L301 540Z" fill="#277297" stroke="#277297"></path><path d="M621 163L491 20L533 237Z" fill="#0c2435" stroke="#0c2435"></path><path d="M575 394L668 266L533 237Z" fill="#19435d" stroke="#19435d"></path><path d="M0 213L52 251L0 146Z" fill="#205a7a" stroke="#205a7a"></path><path d="M0 146L52 251L173 220Z" fill="#1d4e6b" stroke="#1d4e6b"></path><path d="M92 306L114 486L307 316Z" fill="#081a28" stroke="#081a28"></path><path d="M0 378L114 486L92 306Z" fill="#112e42" stroke="#112e42"></path><path d="M432 540L626 480L425 494Z" fill="#19435d" stroke="#19435d"></path><path d="M575 394L681 401L668 266Z" fill="#00101c" stroke="#00101c"></path><path d="M176 0L160 40L293 95Z" fill="#205a7a" stroke="#205a7a"></path><path d="M626 480L681 401L575 394Z" fill="#081a28" stroke="#081a28"></path><path d="M779 179L673 156L668 266Z" fill="#081a28" stroke="#081a28"></path><path d="M668 266L673 156L621 163Z" fill="#081a28" stroke="#081a28"></path><path d="M621 163L688 0L491 20Z" fill="#0c2435" stroke="#0c2435"></path><path d="M322 0L176 0L293 95Z" fill="#0c2435" stroke="#0c2435"></path><path d="M0 213L0 294L52 251Z" fill="#15384f" stroke="#15384f"></path><path d="M52 251L0 294L92 306Z" fill="#19435d" stroke="#19435d"></path><path d="M173 220L198 163L0 146Z" fill="#081a28" stroke="#081a28"></path><path d="M0 146L198 163L160 40Z" fill="#112e42" stroke="#112e42"></path><path d="M0 294L0 378L92 306Z" fill="#0c2435" stroke="#0c2435"></path><path d="M0 378L58 540L114 486Z" fill="#15384f" stroke="#15384f"></path><path d="M114 486L58 540L192 540Z" fill="#205a7a" stroke="#205a7a"></path><path d="M91 0L0 146L160 40Z" fill="#297ea6" stroke="#297ea6"></path><path d="M756 456L758 366L681 401Z" fill="#00101c" stroke="#00101c"></path><path d="M681 401L758 366L668 266Z" fill="#277297" stroke="#277297"></path><path d="M176 0L91 0L160 40Z" fill="#205a7a" stroke="#205a7a"></path><path d="M432 540L686 540L626 480Z" fill="#112e42" stroke="#112e42"></path><path d="M626 480L756 456L681 401Z" fill="#19435d" stroke="#19435d"></path><path d="M686 540L756 456L626 480Z" fill="#205a7a" stroke="#205a7a"></path><path d="M758 366L779 179L668 266Z" fill="#112e42" stroke="#112e42"></path><path d="M673 156L688 0L621 163Z" fill="#19435d" stroke="#19435d"></path><path d="M800 87L779 179L960 138Z" fill="#1d4e6b" stroke="#1d4e6b"></path><path d="M774 70L688 0L673 156Z" fill="#15384f" stroke="#15384f"></path><path d="M491 20L688 0L405 0Z" fill="#19435d" stroke="#19435d"></path><path d="M0 378L0 540L58 540Z" fill="#297ea6" stroke="#297ea6"></path><path d="M779 179L774 70L673 156Z" fill="#081a28" stroke="#081a28"></path><path d="M91 0L0 0L0 146Z" fill="#277297" stroke="#277297"></path><path d="M774 70L731 0L688 0Z" fill="#246688" stroke="#246688"></path><path d="M779 179L800 87L774 70Z" fill="#00101c" stroke="#00101c"></path><path d="M774 70L790 0L731 0Z" fill="#1d4e6b" stroke="#1d4e6b"></path><path d="M887 308L779 179L758 366Z" fill="#297ea6" stroke="#297ea6"></path><path d="M686 540L798 540L756 456Z" fill="#00101c" stroke="#00101c"></path><path d="M960 397L887 308L758 366Z" fill="#112e42" stroke="#112e42"></path><path d="M800 87L790 0L774 70Z" fill="#0c2435" stroke="#0c2435"></path><path d="M960 373L887 308L960 397Z" fill="#246688" stroke="#246688"></path><path d="M800 87L960 0L790 0Z" fill="#081a28" stroke="#081a28"></path><path d="M798 540L836 540L756 456Z" fill="#1d4e6b" stroke="#1d4e6b"></path><path d="M960 373L960 219L887 308Z" fill="#277297" stroke="#277297"></path><path d="M887 308L960 219L779 179Z" fill="#081a28" stroke="#081a28"></path><path d="M960 397L758 366L756 456Z" fill="#0c2435" stroke="#0c2435"></path><path d="M836 540L960 397L756 456Z" fill="#1d4e6b" stroke="#1d4e6b"></path><path d="M960 219L960 138L779 179Z" fill="#246688" stroke="#246688"></path><path d="M836 540L960 540L960 397Z" fill="#081a28" stroke="#081a28"></path><path d="M960 138L960 0L800 87Z" fill="#205a7a" stroke="#205a7a"></path></g></svg>